<?xml version="1.0" encoding="us-ascii" standalone="no"?><svg xmlns="http://www.w3.org/2000/svg" xmlns:xlink="http://www.w3.org/1999/xlink" contentStyleType="text/css" height="645px" preserveAspectRatio="none" style="width:855px;height:645px;background:#FFFFFF;" version="1.1" viewBox="0 0 855 645" width="855px" zoomAndPan="magnify"><defs/><g><rect fill="#FFFFFF" height="433.8594" style="stroke:#181818;stroke-width:1.0;" width="10" x="153" y="112.4297"/><rect fill="#FFFFFF" height="404.7266" style="stroke:#181818;stroke-width:1.0;" width="10" x="369" y="141.5625"/><rect fill="#FFFFFF" height="203.9297" style="stroke:#181818;stroke-width:1.0;" width="10" x="513" y="313.2266"/><rect fill="#FFFFFF" height="29.1328" style="stroke:#181818;stroke-width:1.0;" width="10" x="633" y="342.3594"/><rect fill="#FFFFFF" height="29.1328" style="stroke:#181818;stroke-width:1.0;" width="10" x="719" y="400.625"/><rect fill="#FFFFFF" height="29.1328" style="stroke:#181818;stroke-width:1.0;" width="10" x="805.5" y="458.8906"/><line style="stroke:#181818;stroke-width:0.5;stroke-dasharray:5.0,5.0;" x1="34" x2="34" y1="81.2969" y2="564.2891"/><line style="stroke:#181818;stroke-width:0.5;stroke-dasharray:5.0,5.0;" x1="157.5" x2="157.5" y1="81.2969" y2="564.2891"/><line style="stroke:#181818;stroke-width:0.5;stroke-dasharray:5.0,5.0;" x1="374" x2="374" y1="81.2969" y2="564.2891"/><line style="stroke:#181818;stroke-width:0.5;stroke-dasharray:5.0,5.0;" x1="517.5" x2="517.5" y1="81.2969" y2="564.2891"/><line style="stroke:#181818;stroke-width:0.5;stroke-dasharray:5.0,5.0;" x1="638" x2="638" y1="81.2969" y2="564.2891"/><line style="stroke:#181818;stroke-width:0.5;stroke-dasharray:5.0,5.0;" x1="724" x2="724" y1="81.2969" y2="564.2891"/><line style="stroke:#181818;stroke-width:0.5;stroke-dasharray:5.0,5.0;" x1="810" x2="810" y1="81.2969" y2="564.2891"/><text fill="#000000" font-family="sans-serif" font-size="14" lengthAdjust="spacing" textLength="52" x="5" y="77.9951">Usu&#225;rio</text><ellipse cx="34" cy="13.5" fill="#E2E2F0" rx="8" ry="8" style="stroke:#181818;stroke-width:0.5;"/><path d="M34,21.5 L34,48.5 M21,29.5 L47,29.5 M34,48.5 L21,63.5 M34,48.5 L47,63.5 " fill="none" style="stroke:#181818;stroke-width:0.5;"/><text fill="#000000" font-family="sans-serif" font-size="14" lengthAdjust="spacing" textLength="52" x="5" y="576.2842">Usu&#225;rio</text><ellipse cx="34" cy="588.0859" fill="#E2E2F0" rx="8" ry="8" style="stroke:#181818;stroke-width:0.5;"/><path d="M34,596.0859 L34,623.0859 M21,604.0859 L47,604.0859 M34,623.0859 L21,638.0859 M34,623.0859 L47,638.0859 " fill="none" style="stroke:#181818;stroke-width:0.5;"/><rect fill="#E2E2F0" height="30.2969" rx="2.5" ry="2.5" style="stroke:#181818;stroke-width:0.5;" width="55" x="130.5" y="50"/><text fill="#000000" font-family="sans-serif" font-size="14" lengthAdjust="spacing" textLength="41" x="137.5" y="69.9951">Painel</text><rect fill="#E2E2F0" height="30.2969" rx="2.5" ry="2.5" style="stroke:#181818;stroke-width:0.5;" width="55" x="130.5" y="563.2891"/><text fill="#000000" font-family="sans-serif" font-size="14" lengthAdjust="spacing" textLength="41" x="137.5" y="583.2842">Painel</text><rect fill="#E2E2F0" height="30.2969" rx="2.5" ry="2.5" style="stroke:#181818;stroke-width:0.5;" width="104" x="322" y="50"/><text fill="#000000" font-family="sans-serif" font-size="14" lengthAdjust="spacing" textLength="90" x="329" y="69.9951">Aplica&#231;&#227;o IoT</text><rect fill="#E2E2F0" height="30.2969" rx="2.5" ry="2.5" style="stroke:#181818;stroke-width:0.5;" width="104" x="322" y="563.2891"/><text fill="#000000" font-family="sans-serif" font-size="14" lengthAdjust="spacing" textLength="90" x="329" y="583.2842">Aplica&#231;&#227;o IoT</text><rect fill="#E2E2F0" height="30.2969" rx="2.5" ry="2.5" style="stroke:#181818;stroke-width:0.5;" width="105" x="465.5" y="50"/><text fill="#000000" font-family="sans-serif" font-size="14" lengthAdjust="spacing" textLength="91" x="472.5" y="69.9951">Broker MQTT</text><rect fill="#E2E2F0" height="30.2969" rx="2.5" ry="2.5" style="stroke:#181818;stroke-width:0.5;" width="105" x="465.5" y="563.2891"/><text fill="#000000" font-family="sans-serif" font-size="14" lengthAdjust="spacing" textLength="91" x="472.5" y="583.2842">Broker MQTT</text><rect fill="#E2E2F0" height="30.2969" rx="2.5" ry="2.5" style="stroke:#181818;stroke-width:0.5;" width="76" x="600" y="50"/><text fill="#000000" font-family="sans-serif" font-size="14" lengthAdjust="spacing" textLength="62" x="607" y="69.9951">Sensor 1</text><rect fill="#E2E2F0" height="30.2969" rx="2.5" ry="2.5" style="stroke:#181818;stroke-width:0.5;" width="76" x="600" y="563.2891"/><text fill="#000000" font-family="sans-serif" font-size="14" lengthAdjust="spacing" textLength="62" x="607" y="583.2842">Sensor 1</text><rect fill="#E2E2F0" height="30.2969" rx="2.5" ry="2.5" style="stroke:#181818;stroke-width:0.5;" width="76" x="686" y="50"/><text fill="#000000" font-family="sans-serif" font-size="14" lengthAdjust="spacing" textLength="62" x="693" y="69.9951">Sensor 2</text><rect fill="#E2E2F0" height="30.2969" rx="2.5" ry="2.5" style="stroke:#181818;stroke-width:0.5;" width="76" x="686" y="563.2891"/><text fill="#000000" font-family="sans-serif" font-size="14" lengthAdjust="spacing" textLength="62" x="693" y="583.2842">Sensor 2</text><rect fill="#E2E2F0" height="30.2969" rx="2.5" ry="2.5" style="stroke:#181818;stroke-width:0.5;" width="77" x="772" y="50"/><text fill="#000000" font-family="sans-serif" font-size="14" lengthAdjust="spacing" textLength="63" x="779" y="69.9951">Sensor N</text><rect fill="#E2E2F0" height="30.2969" rx="2.5" ry="2.5" style="stroke:#181818;stroke-width:0.5;" width="77" x="772" y="563.2891"/><text fill="#000000" font-family="sans-serif" font-size="14" lengthAdjust="spacing" textLength="63" x="779" y="583.2842">Sensor N</text><rect fill="#FFFFFF" height="433.8594" style="stroke:#181818;stroke-width:1.0;" width="10" x="153" y="112.4297"/><rect fill="#FFFFFF" height="404.7266" style="stroke:#181818;stroke-width:1.0;" width="10" x="369" y="141.5625"/><rect fill="#FFFFFF" height="203.9297" style="stroke:#181818;stroke-width:1.0;" width="10" x="513" y="313.2266"/><rect fill="#FFFFFF" height="29.1328" style="stroke:#181818;stroke-width:1.0;" width="10" x="633" y="342.3594"/><rect fill="#FFFFFF" height="29.1328" style="stroke:#181818;stroke-width:1.0;" width="10" x="719" y="400.625"/><rect fill="#FFFFFF" height="29.1328" style="stroke:#181818;stroke-width:1.0;" width="10" x="805.5" y="458.8906"/><polygon fill="#181818" points="141,108.4297,151,112.4297,141,116.4297,145,112.4297" style="stroke:#181818;stroke-width:1.0;"/><line style="stroke:#181818;stroke-width:1.0;" x1="34" x2="147" y1="112.4297" y2="112.4297"/><text fill="#000000" font-family="sans-serif" font-size="13" lengthAdjust="spacing" textLength="100" x="41" y="107.3638">Acessa o Painel</text><polygon fill="#181818" points="357,137.5625,367,141.5625,357,145.5625,361,141.5625" style="stroke:#181818;stroke-width:1.0;"/><line style="stroke:#181818;stroke-width:1.0;" x1="163" x2="363" y1="141.5625" y2="141.5625"/><text fill="#000000" font-family="sans-serif" font-size="13" lengthAdjust="spacing" textLength="91" x="170" y="136.4966">Solicita Dados</text><line style="stroke:#181818;stroke-width:1.0;" x1="379" x2="421" y1="170.6953" y2="170.6953"/><line style="stroke:#181818;stroke-width:1.0;" x1="421" x2="421" y1="170.6953" y2="183.6953"/><line style="stroke:#181818;stroke-width:1.0;" x1="380" x2="421" y1="183.6953" y2="183.6953"/><polygon fill="#181818" points="390,179.6953,380,183.6953,390,187.6953,386,183.6953" style="stroke:#181818;stroke-width:1.0;"/><text fill="#000000" font-family="sans-serif" font-size="13" lengthAdjust="spacing" textLength="114" x="386" y="165.6294">Autentica Usu&#225;rio</text><polygon fill="#181818" points="174,208.8281,164,212.8281,174,216.8281,170,212.8281" style="stroke:#181818;stroke-width:1.0;"/><line style="stroke:#181818;stroke-width:1.0;stroke-dasharray:2.0,2.0;" x1="168" x2="368" y1="212.8281" y2="212.8281"/><text fill="#000000" font-family="sans-serif" font-size="13" lengthAdjust="spacing" textLength="182" x="180" y="207.7622">Autentica&#231;&#227;o Bem-Sucedida</text><line style="stroke:#181818;stroke-width:1.0;" x1="379" x2="421" y1="241.9609" y2="241.9609"/><line style="stroke:#181818;stroke-width:1.0;" x1="421" x2="421" y1="241.9609" y2="254.9609"/><line style="stroke:#181818;stroke-width:1.0;" x1="380" x2="421" y1="254.9609" y2="254.9609"/><polygon fill="#181818" points="390,250.9609,380,254.9609,390,258.9609,386,254.9609" style="stroke:#181818;stroke-width:1.0;"/><text fill="#000000" font-family="sans-serif" font-size="13" lengthAdjust="spacing" textLength="106" x="386" y="236.895">Autoriza Usu&#225;rio</text><polygon fill="#181818" points="174,280.0938,164,284.0938,174,288.0938,170,284.0938" style="stroke:#181818;stroke-width:1.0;"/><line style="stroke:#181818;stroke-width:1.0;stroke-dasharray:2.0,2.0;" x1="168" x2="368" y1="284.0938" y2="284.0938"/><text fill="#000000" font-family="sans-serif" font-size="13" lengthAdjust="spacing" textLength="147" x="180" y="279.0278">Autoriza&#231;&#227;o Concedida</text><polygon fill="#181818" points="501,309.2266,511,313.2266,501,317.2266,505,313.2266" style="stroke:#181818;stroke-width:1.0;"/><line style="stroke:#181818;stroke-width:1.0;" x1="379" x2="507" y1="313.2266" y2="313.2266"/><text fill="#000000" font-family="sans-serif" font-size="13" lengthAdjust="spacing" textLength="53" x="386" y="308.1606">Conecta</text><polygon fill="#181818" points="621,338.3594,631,342.3594,621,346.3594,625,342.3594" style="stroke:#181818;stroke-width:1.0;"/><line style="stroke:#181818;stroke-width:1.0;" x1="523" x2="627" y1="342.3594" y2="342.3594"/><text fill="#000000" font-family="sans-serif" font-size="13" lengthAdjust="spacing" textLength="91" x="530" y="337.2935">Solicita Dados</text><polygon fill="#181818" points="534,367.4922,524,371.4922,534,375.4922,530,371.4922" style="stroke:#181818;stroke-width:1.0;"/><line style="stroke:#181818;stroke-width:1.0;stroke-dasharray:2.0,2.0;" x1="528" x2="637" y1="371.4922" y2="371.4922"/><text fill="#000000" font-family="sans-serif" font-size="13" lengthAdjust="spacing" textLength="79" x="540" y="366.4263">Envia Dados</text><polygon fill="#181818" points="707,396.625,717,400.625,707,404.625,711,400.625" style="stroke:#181818;stroke-width:1.0;"/><line style="stroke:#181818;stroke-width:1.0;" x1="523" x2="713" y1="400.625" y2="400.625"/><text fill="#000000" font-family="sans-serif" font-size="13" lengthAdjust="spacing" textLength="91" x="530" y="395.5591">Solicita Dados</text><polygon fill="#181818" points="534,425.7578,524,429.7578,534,433.7578,530,429.7578" style="stroke:#181818;stroke-width:1.0;"/><line style="stroke:#181818;stroke-width:1.0;stroke-dasharray:2.0,2.0;" x1="528" x2="723" y1="429.7578" y2="429.7578"/><text fill="#000000" font-family="sans-serif" font-size="13" lengthAdjust="spacing" textLength="79" x="540" y="424.6919">Envia Dados</text><polygon fill="#181818" points="793.5,454.8906,803.5,458.8906,793.5,462.8906,797.5,458.8906" style="stroke:#181818;stroke-width:1.0;"/><line style="stroke:#181818;stroke-width:1.0;" x1="523" x2="799.5" y1="458.8906" y2="458.8906"/><text fill="#000000" font-family="sans-serif" font-size="13" lengthAdjust="spacing" textLength="91" x="530" y="453.8247">Solicita Dados</text><polygon fill="#181818" points="534,484.0234,524,488.0234,534,492.0234,530,488.0234" style="stroke:#181818;stroke-width:1.0;"/><line style="stroke:#181818;stroke-width:1.0;stroke-dasharray:2.0,2.0;" x1="528" x2="809.5" y1="488.0234" y2="488.0234"/><text fill="#000000" font-family="sans-serif" font-size="13" lengthAdjust="spacing" textLength="79" x="540" y="482.9575">Envia Dados</text><polygon fill="#181818" points="390,513.1563,380,517.1563,390,521.1563,386,517.1563" style="stroke:#181818;stroke-width:1.0;"/><line style="stroke:#181818;stroke-width:1.0;stroke-dasharray:2.0,2.0;" x1="384" x2="517" y1="517.1563" y2="517.1563"/><text fill="#000000" font-family="sans-serif" font-size="13" lengthAdjust="spacing" textLength="110" x="396" y="512.0903">Dados Recebidos</text><polygon fill="#181818" points="169,542.2891,159,546.2891,169,550.2891,165,546.2891" style="stroke:#181818;stroke-width:1.0;"/><line style="stroke:#181818;stroke-width:1.0;stroke-dasharray:2.0,2.0;" x1="163" x2="373" y1="546.2891" y2="546.2891"/><text fill="#000000" font-family="sans-serif" font-size="13" lengthAdjust="spacing" textLength="79" x="175" y="541.2231">Envia Dados</text><!--SRC=[ZP8nSeCm44LxJh7ZteLLKcG69obIHEC4vm0RiOKcZiH8maLkaqcHWt2nO2G5OSn01Il-rzlT3mgd3RpPflqsKcSr6YU5h54vs1nGAZfj02tur_7deZv9WUrl-wFXIHzxdJyJgBk3iNflz0SPU7uvUgMlnvgIbEswsVK2N-nkAbYYO3SLF57mB8i3mlOkp9938SXQ11s7G-7a6Ht5sZykZdIg74hTLT8XF62bxM0RpPuMqokAnf7gUiPXysD3scRK-atlwNDRDe8gMU4oHHlvjHBIIptZNgiPW4yjloX8E1o63t66b3jbY6z-NJ7VyEpRYTS_ghECXeecbciAMwAmG67hAMn2uKiK7YXyFON_KoRfzGvu9K7lyieRbZsRvWnoz8Ccvzxs1m00]--></g></svg>