<?xml version="1.0" encoding="us-ascii" standalone="no"?><svg xmlns="http://www.w3.org/2000/svg" xmlns:xlink="http://www.w3.org/1999/xlink" contentStyleType="text/css" height="501px" preserveAspectRatio="none" style="width:1063px;height:501px;background:#FFFFFF;" version="1.1" viewBox="0 0 1063 501" width="1063px" zoomAndPan="magnify"><defs/><g><!--cluster Sistema IoT--><g id="cluster_Sistema IoT"><path d="M8.5,6 L100.5,6 A3.75,3.75 0 0 1 103,8.5 L110,28.2969 L586.5,28.2969 A2.5,2.5 0 0 1 589,30.7969 L589,229.5 A2.5,2.5 0 0 1 586.5,232 L8.5,232 A2.5,2.5 0 0 1 6,229.5 L6,8.5 A2.5,2.5 0 0 1 8.5,6 " fill="none" style="stroke:#000000;stroke-width:1.5;"/><line style="stroke:#000000;stroke-width:1.5;" x1="6" x2="110" y1="28.2969" y2="28.2969"/><text fill="#000000" font-family="sans-serif" font-size="14" font-weight="bold" lengthAdjust="spacing" textLength="91" x="10" y="20.9951">Sistema IoT</text></g><!--entity Painel--><g id="elem_Painel"><rect fill="#F1F1F1" height="46.2969" rx="2.5" ry="2.5" style="stroke:#181818;stroke-width:0.5;" width="81" x="491.5" y="41"/><rect fill="#F1F1F1" height="10" style="stroke:#181818;stroke-width:0.5;" width="15" x="552.5" y="46"/><rect fill="#F1F1F1" height="2" style="stroke:#181818;stroke-width:0.5;" width="4" x="550.5" y="48"/><rect fill="#F1F1F1" height="2" style="stroke:#181818;stroke-width:0.5;" width="4" x="550.5" y="52"/><text fill="#000000" font-family="sans-serif" font-size="14" lengthAdjust="spacing" textLength="41" x="506.5" y="73.9951">Painel</text></g><!--entity Aplica??o IoT--><g id="elem_Aplica&#231;&#227;o IoT"><rect fill="#F1F1F1" height="46.2969" rx="2.5" ry="2.5" style="stroke:#181818;stroke-width:0.5;" width="130" x="22" y="41"/><rect fill="#F1F1F1" height="10" style="stroke:#181818;stroke-width:0.5;" width="15" x="132" y="46"/><rect fill="#F1F1F1" height="2" style="stroke:#181818;stroke-width:0.5;" width="4" x="130" y="48"/><rect fill="#F1F1F1" height="2" style="stroke:#181818;stroke-width:0.5;" width="4" x="130" y="52"/><text fill="#000000" font-family="sans-serif" font-size="14" lengthAdjust="spacing" textLength="90" x="37" y="73.9951">Aplica&#231;&#227;o IoT</text></g><!--entity Broker MQTT--><g id="elem_Broker MQTT"><rect fill="#F1F1F1" height="46.2969" rx="2.5" ry="2.5" style="stroke:#181818;stroke-width:0.5;" width="131" x="187.5" y="41"/><rect fill="#F1F1F1" height="10" style="stroke:#181818;stroke-width:0.5;" width="15" x="298.5" y="46"/><rect fill="#F1F1F1" height="2" style="stroke:#181818;stroke-width:0.5;" width="4" x="296.5" y="48"/><rect fill="#F1F1F1" height="2" style="stroke:#181818;stroke-width:0.5;" width="4" x="296.5" y="52"/><text fill="#000000" font-family="sans-serif" font-size="14" lengthAdjust="spacing" textLength="91" x="202.5" y="73.9951">Broker MQTT</text></g><!--entity Sensor 1--><g id="elem_Sensor 1"><rect fill="#F1F1F1" height="46.2969" rx="2.5" ry="2.5" style="stroke:#181818;stroke-width:0.5;" width="102" x="354" y="41"/><rect fill="#F1F1F1" height="10" style="stroke:#181818;stroke-width:0.5;" width="15" x="436" y="46"/><rect fill="#F1F1F1" height="2" style="stroke:#181818;stroke-width:0.5;" width="4" x="434" y="48"/><rect fill="#F1F1F1" height="2" style="stroke:#181818;stroke-width:0.5;" width="4" x="434" y="52"/><text fill="#000000" font-family="sans-serif" font-size="14" lengthAdjust="spacing" textLength="62" x="369" y="73.9951">Sensor 1</text></g><!--entity Sensor 2--><g id="elem_Sensor 2"><rect fill="#F1F1F1" height="46.2969" rx="2.5" ry="2.5" style="stroke:#181818;stroke-width:0.5;" width="102" x="36" y="170"/><rect fill="#F1F1F1" height="10" style="stroke:#181818;stroke-width:0.5;" width="15" x="118" y="175"/><rect fill="#F1F1F1" height="2" style="stroke:#181818;stroke-width:0.5;" width="4" x="116" y="177"/><rect fill="#F1F1F1" height="2" style="stroke:#181818;stroke-width:0.5;" width="4" x="116" y="181"/><text fill="#000000" font-family="sans-serif" font-size="14" lengthAdjust="spacing" textLength="62" x="51" y="202.9951">Sensor 2</text></g><!--entity Sensor N--><g id="elem_Sensor N"><rect fill="#F1F1F1" height="46.2969" rx="2.5" ry="2.5" style="stroke:#181818;stroke-width:0.5;" width="103" x="173.5" y="170"/><rect fill="#F1F1F1" height="10" style="stroke:#181818;stroke-width:0.5;" width="15" x="256.5" y="175"/><rect fill="#F1F1F1" height="2" style="stroke:#181818;stroke-width:0.5;" width="4" x="254.5" y="177"/><rect fill="#F1F1F1" height="2" style="stroke:#181818;stroke-width:0.5;" width="4" x="254.5" y="181"/><text fill="#000000" font-family="sans-serif" font-size="14" lengthAdjust="spacing" textLength="63" x="188.5" y="202.9951">Sensor N</text></g><!--entity AplicacaoIoT--><g id="elem_AplicacaoIoT"><ellipse cx="656" cy="193" fill="#F1F1F1" rx="8" ry="8" style="stroke:#181818;stroke-width:0.5;"/><text fill="#000000" font-family="sans-serif" font-size="14" lengthAdjust="spacing" textLength="86" x="613" y="222.9951">AplicacaoIoT</text></g><!--entity Broker--><g id="elem_Broker"><ellipse cx="769" cy="328" fill="#F1F1F1" rx="8" ry="8" style="stroke:#181818;stroke-width:0.5;"/><text fill="#000000" font-family="sans-serif" font-size="14" lengthAdjust="spacing" textLength="46" x="746" y="357.9951">Broker</text></g><!--entity Sensor1--><g id="elem_Sensor1"><ellipse cx="542" cy="463" fill="#F1F1F1" rx="8" ry="8" style="stroke:#181818;stroke-width:0.5;"/><text fill="#000000" font-family="sans-serif" font-size="14" lengthAdjust="spacing" textLength="58" x="513" y="492.9951">Sensor1</text></g><!--entity Sensor2--><g id="elem_Sensor2"><ellipse cx="976" cy="463" fill="#F1F1F1" rx="8" ry="8" style="stroke:#181818;stroke-width:0.5;"/><text fill="#000000" font-family="sans-serif" font-size="14" lengthAdjust="spacing" textLength="58" x="947" y="492.9951">Sensor2</text></g><!--entity SensorN--><g id="elem_SensorN"><ellipse cx="718" cy="463" fill="#F1F1F1" rx="8" ry="8" style="stroke:#181818;stroke-width:0.5;"/><text fill="#000000" font-family="sans-serif" font-size="14" lengthAdjust="spacing" textLength="59" x="688.5" y="492.9951">SensorN</text></g><!--link Painel to AplicacaoIoT--><g id="link_Painel_AplicacaoIoT"><path d="M553.6,87.12 C579.99,114.15 623.68,158.9 644.4,180.12 " fill="none" id="Painel-to-AplicacaoIoT" style="stroke:#181818;stroke-width:1.0;"/><polygon fill="#181818" points="648,183.8,644.5575,174.5724,644.5004,180.2289,638.8438,180.1718,648,183.8" style="stroke:#181818;stroke-width:1.0;"/><text fill="#000000" font-family="sans-serif" font-size="13" lengthAdjust="spacing" textLength="91" x="599" y="130.0669">Solicita Dados</text></g><!--link AplicacaoIoT to Broker--><g id="link_AplicacaoIoT_Broker"><path d="M663.07,202.32 C682.33,224.99 735.82,287.95 758.56,314.71 " fill="none" id="AplicacaoIoT-to-Broker" style="stroke:#181818;stroke-width:1.0;"/><polygon fill="#181818" points="761.93,318.68,759.1479,309.2323,758.6913,314.8707,753.0529,314.4141,761.93,318.68" style="stroke:#181818;stroke-width:1.0;"/><text fill="#000000" font-family="sans-serif" font-size="13" lengthAdjust="spacing" textLength="53" x="720" y="265.0669">Conecta</text></g><!--link AplicacaoIoT to Sensor1--><g id="link_AplicacaoIoT_Sensor1"><path d="M646.92,200.28 C634.06,209.17 609.78,225.9 589,240 C550.03,266.44 523.16,257.45 501,299 C473.49,350.56 514.12,421.22 533.11,449.53 " fill="none" id="AplicacaoIoT-to-Sensor1" style="stroke:#181818;stroke-width:1.0;"/><polygon fill="#181818" points="535.96,453.7,534.1959,444.0104,533.1438,449.5686,527.5856,448.5164,535.96,453.7" style="stroke:#181818;stroke-width:1.0;"/><text fill="#000000" font-family="sans-serif" font-size="13" lengthAdjust="spacing" textLength="91" x="502" y="332.5669">Solicita Dados</text></g><!--link AplicacaoIoT to Sensor2--><g id="link_AplicacaoIoT_Sensor2"><path d="M665.28,195.83 C711.13,205.45 914.15,254.8 985,387 C995.57,406.73 988.04,433.5 981.85,449.14 " fill="none" id="AplicacaoIoT-to-Sensor2" style="stroke:#181818;stroke-width:1.0;"/><polygon fill="#181818" points="979.83,453.99,986.9734,447.2098,981.746,449.3717,979.5841,444.1442,979.83,453.99" style="stroke:#181818;stroke-width:1.0;"/><text fill="#000000" font-family="sans-serif" font-size="13" lengthAdjust="spacing" textLength="91" x="964" y="332.5669">Solicita Dados</text></g><!--link AplicacaoIoT to SensorN--><g id="link_AplicacaoIoT_SensorN"><path d="M650.68,202.29 C632.4,231.9 575.5,334.39 616,404 C635.14,436.9 680.69,452.68 703.89,458.79 " fill="none" id="AplicacaoIoT-to-SensorN" style="stroke:#181818;stroke-width:1.0;"/><polygon fill="#181818" points="708.75,460.02,701.0099,453.9297,703.9035,458.7905,699.0427,461.6841,708.75,460.02" style="stroke:#181818;stroke-width:1.0;"/><text fill="#000000" font-family="sans-serif" font-size="13" lengthAdjust="spacing" textLength="91" x="609" y="332.5669">Solicita Dados</text></g><!--link Broker to Sensor1--><g id="link_Broker_Sensor1"><path d="M759.98,332.52 C739.12,340.81 686.13,362.71 645,387 C611,407.08 574.34,435.62 555.26,451.06 " fill="none" id="Broker-to-Sensor1" style="stroke:#181818;stroke-width:1.0;"/><polygon fill="#181818" points="551.24,454.33,560.7427,451.742,555.1149,451.17,555.6868,445.5422,551.24,454.33" style="stroke:#181818;stroke-width:1.0;"/><text fill="#000000" font-family="sans-serif" font-size="13" lengthAdjust="spacing" textLength="91" x="646" y="400.0669">Solicita Dados</text></g><!--link Broker to Sensor2--><g id="link_Broker_Sensor2"><path d="M778.16,334.89 C811.09,356.05 923.58,428.32 962.56,453.37 " fill="none" id="Broker-to-Sensor2" style="stroke:#181818;stroke-width:1.0;"/><polygon fill="#181818" points="966.94,456.18,961.5324,447.9485,962.7341,453.4762,957.2064,454.6779,966.94,456.18" style="stroke:#181818;stroke-width:1.0;"/><text fill="#000000" font-family="sans-serif" font-size="13" lengthAdjust="spacing" textLength="91" x="885" y="400.0669">Solicita Dados</text></g><!--link Broker to SensorN--><g id="link_Broker_SensorN"><path d="M766.97,337.02 C763.37,350.89 755.35,380.16 746,404 C739.71,420.03 730.86,437.76 724.8,449.35 " fill="none" id="Broker-to-SensorN" style="stroke:#181818;stroke-width:1.0;"/><polygon fill="#181818" points="722.39,453.92,730.1271,447.8259,724.7229,449.4976,723.0512,444.0934,722.39,453.92" style="stroke:#181818;stroke-width:1.0;"/><text fill="#000000" font-family="sans-serif" font-size="13" lengthAdjust="spacing" textLength="91" x="752" y="400.0669">Solicita Dados</text></g><!--SRC=[AqXCpavCJrLG2iuiBadDJLJmp0zHKgZcKW22w834pBpKd5W8nx4W9pCvyV3omulpGOgWeav5-TcfHGg-WI4maU3KlEBy8WL3LAuHAjSlbgkMYmjYleAkhfq2nFJan7oWqLOAmVb0NcP9ee9BOaf-CHUo95Wrn5Oh1UVylDJaaaHC1H1h30cR155eHAn2Fmo5q030Poc64YF2IZ0i0W00]--></g></svg>